# xmcd
# 
# Track frame offsets:
#     187
#     18937
#     37877
#     51337
#     71627
#     86890
#     105340
#     123702
#     140880
#     160775
#     177250
#     194962
#     211915
#     229612
#     246072
#     263512
#     280077
# 
# Disc length: 3960
# 
# Revision: 2
# Processed by: cddbd v1.5.2PL0 Copyright (c) Steve Scherf et al.
# Submitted via: fre:ac v1.0.31
# 
DISCID=f40f7611
DTITLE=海援隊 - 海援隊全曲集
DYEAR=1999
DGENRE=Pop
TTITLE0=母に捧げるバラード
TTITLE1=故郷未だ忘れ難く
TTITLE2=あんたが大将
TTITLE3=思えば遠くへ来たもんだ
TTITLE4=JODAN JODAN
TTITLE5=贈る言葉
TTITLE6=二流の人
TTITLE7=心のかたち
TTITLE8=俺が信長
TTITLE9=人として
TTITLE10=漂流船
TTITLE11=恋不思議
TTITLE12=心が風邪をひいたようで
TTITLE13=こらえちゃっときない
TTITLE14=えきすとら
TTITLE15=涙がらがら
TTITLE16=遥かなる人
EXTD=
EXTT0=
EXTT1=
EXTT2=
EXTT3=
EXTT4=
EXTT5=
EXTT6=
EXTT7=
EXTT8=
EXTT9=
EXTT10=
EXTT11=
EXTT12=
EXTT13=
EXTT14=
EXTT15=
EXTT16=
PLAYORDER=
